<?xml version="1.0" encoding="UTF-8"?> <svg xmlns="http://www.w3.org/2000/svg" viewBox="0 0 117.44 86.6"><defs><style>.cls-1{fill:#45759c;}.cls-2{fill:#80b851;}</style></defs><g id="Capa_2" data-name="Capa 2"><g id="Capa_2-2" data-name="Capa 2"><path class="cls-1" d="M76.69,40.46V30.14a3.72,3.72,0,0,1,2.44-3.49,5.5,5.5,0,0,0-2.4-3.85L61.16,14a5.38,5.38,0,0,0-4.88,0L40.71,22.8a5.53,5.53,0,0,0-2.4,3.85,3.73,3.73,0,0,1,2.45,3.49v9.72a32.21,32.21,0,0,0,12.79,6.77,6.51,6.51,0,0,1,4.55-1.7c3.16,0,5.71,1.91,5.71,4.26s-2.55,4.26-5.71,4.26c-2.93,0-5.34-1.65-5.66-3.77a35.32,35.32,0,0,1-12.83-6.53,3.76,3.76,0,0,1-1.34.82v9.85a2.84,2.84,0,0,0,2.83,2.82H76.34a2.83,2.83,0,0,0,2.83-2.82V44A3.72,3.72,0,0,1,76.69,40.46Zm-18.7,0a.81.81,0,0,1-.81.81H51.91a.81.81,0,0,1-.81-.81V35.22a.82.82,0,0,1,.81-.82h5.27a.82.82,0,0,1,.81.82Zm0-8.26a.81.81,0,0,1-.81.81H51.91a.81.81,0,0,1-.81-.81V27a.81.81,0,0,1,.81-.81h5.27A.81.81,0,0,1,58,27Zm8.35,8.26a.81.81,0,0,1-.81.81H60.26a.81.81,0,0,1-.81-.81V35.22a.82.82,0,0,1,.81-.82h5.27a.82.82,0,0,1,.81.82Zm0-8.26a.81.81,0,0,1-.81.81H60.26a.81.81,0,0,1-.81-.81V27a.81.81,0,0,1,.81-.81h5.27a.81.81,0,0,1,.81.81Z"></path><path class="cls-2" d="M87.05,27.2C85.25,12.11,73,0,58.72,0S32.2,12.11,30.39,27.2a4.23,4.23,0,0,0-3.77,4.2v7.29a4.24,4.24,0,0,0,4.24,4.25h3.21a4.25,4.25,0,0,0,4.25-4.25V31.4a4.24,4.24,0,0,0-3.27-4.12C36.76,14.67,46.9,4.64,58.72,4.64s22,10,23.68,22.64a4.23,4.23,0,0,0-3.28,4.12v7.29a4.25,4.25,0,0,0,4.25,4.25h3.21a4.24,4.24,0,0,0,4.24-4.25V31.4A4.23,4.23,0,0,0,87.05,27.2Z"></path><path class="cls-1" d="M6.55,69.91H0v14.6H3V72.63H6.39A1.36,1.36,0,0,1,8,74.19c0,1.36-1.11,2.22-3.41,2.63l-.19,0,.44,2.73.2,0c4.06-.62,6.11-2.45,6.11-5.45C11.1,71.33,9.57,69.91,6.55,69.91Z"></path><path class="cls-1" d="M19.27,69.81c-4.86,0-7.33,2.5-7.33,7.43.22,4.89,2.68,7.37,7.33,7.37s7.22-2.48,7.22-7.38S24.06,69.81,19.27,69.81Zm0,12.11c-2.82,0-4.2-1.55-4.2-4.75s1.38-4.67,4.2-4.67,4.09,1.53,4.09,4.67S22,81.92,19.27,81.92Z"></path><polygon class="cls-1" points="41.42 79.11 38.18 69.91 35.37 69.91 31.9 79.49 30.47 69.91 27.39 69.91 29.79 84.51 32.57 84.51 36.62 73.76 40.38 84.51 43.19 84.51 45.94 69.91 42.93 69.91 41.42 79.11"></polygon><polygon class="cls-1" points="50.31 78.5 57.11 78.5 57.11 75.75 50.34 75.75 50.34 72.58 57.45 72.58 57.45 69.91 47.33 69.91 47.33 84.51 57.59 84.51 57.59 81.83 50.31 81.83 50.31 78.5"></polygon><path class="cls-1" d="M67.54,78.25c2.18-1.14,3.28-2.6,3.28-4.33,0-2.66-1.53-4-4.55-4H59.62V84.49H62.7V72.63h3.4c1.07,0,1.57.43,1.57,1.37,0,1.42-1.18,2.31-3.61,2.73l-.16,0v1.44l4.41,6.32h3.82Z"></path><path class="cls-2" d="M101.39,86.47l3.09-5.09h8.26l1.11,5.09h3.59l-4.36-18.66h-3.71L97.71,86.47Zm9.16-15.1,1.54,7H106.3Z"></path><polygon class="cls-2" points="82.46 67.81 79 67.81 75.27 86.47 78.72 86.47 82.46 67.81"></polygon><path class="cls-2" d="M97.55,80.72c.7-3.47-1-5.22-5-5.22H89.58c-1.51,0-2.13-.69-1.85-2.08q.54-2.74,5.24-2.74a15.14,15.14,0,0,1,5.73,1l.63-3.13a17.4,17.4,0,0,0-5.76-.92q-8.14,0-9.3,5.75-1,5.22,4.69,5.22h2.92c1.75,0,2.49.69,2.22,2.08-.39,1.92-2,2.87-4.87,2.87a16.25,16.25,0,0,1-6.13-1l-.63,3.13a18.71,18.71,0,0,0,6.16.92Q96.39,86.6,97.55,80.72Z"></path></g></g></svg> 